<?xml version="1.0" encoding="UTF-8"?>
<svg version="1.1" xmlns="http://www.w3.org/2000/svg" width="303" height="305">
<path d="M0 0 C3.08559906 0.00286324 6.17119848 0.00500194 9.25679809 0.00717258 C29.37161247 0.02164604 49.48633136 0.05719708 69.60106516 0.11598015 C72.0573888 0.12314494 74.51371303 0.13010986 76.97003794 0.13682365 C88.80986743 0.16946129 100.64905091 0.21928059 112.48837137 0.33666801 C115.37066625 0.36510021 118.2528142 0.38523699 121.13522196 0.3975811 C124.98092094 0.41489537 128.82580145 0.46378497 132.67117167 0.51775932 C134.25811586 0.51961739 134.25811586 0.51961739 135.87711954 0.52151299 C144.1149859 0.68707996 151.51032744 2.51730067 158.42507792 7.12713432 C158.42507792 7.78713432 158.42507792 8.44713432 158.42507792 9.12713432 C159.02191385 9.37979057 159.61874979 9.63244682 160.23367167 9.89275932 C165.59063981 12.91023158 169.10220783 19.62559991 171.42507792 25.12713432 C172.75715413 29.99286516 172.57020841 34.88891919 172.56551981 39.8930645 C172.56997649 41.37840238 172.56997649 41.37840238 172.57452321 42.89374709 C172.58320217 46.21536648 172.58471778 49.5369498 172.58621073 52.85857964 C172.59083945 55.23877349 172.59586418 57.61896661 172.60125589 59.99915886 C172.61437623 66.46826772 172.62086095 72.93736967 172.62526655 79.40648937 C172.62803204 83.44809474 172.63226994 87.48969774 172.63677073 91.5313015 C172.64896073 102.72795906 172.65926071 113.92461471 172.66264582 125.12127876 C172.66286538 125.83746863 172.66308495 126.5536585 172.66331117 127.2915511 C172.66352945 128.00942383 172.66374772 128.72729655 172.66397262 129.466923 C172.66441608 130.9215312 172.66486264 132.3761394 172.66531229 133.8307476 C172.66553372 134.55227869 172.66575515 135.27380978 172.66598329 136.01720545 C172.66993034 147.7055494 172.68738273 159.39383098 172.71067181 171.08215085 C172.73440583 183.09099686 172.74684859 195.0998116 172.74801373 207.10868144 C172.74892932 213.84774916 172.75465226 220.58673559 172.77283335 227.32578087 C172.78930943 233.66559451 172.79147165 240.00525392 172.78269434 246.34508133 C172.78192374 248.66984215 172.78626968 250.99461125 172.79615259 253.3193512 C172.80886946 256.49750732 172.80299632 259.675117 172.79257059 262.85326958 C172.8046552 264.22708097 172.8046552 264.22708097 172.81698394 265.62864614 C172.74218228 275.40531853 169.74244183 283.62858262 163.42507792 291.12713432 C154.57853742 299.74799776 146.2614969 302.59410925 134.07769632 302.51481438 C133.07321384 302.52019991 132.06873136 302.52558545 131.03381002 302.53113419 C127.68770614 302.54537444 124.34200007 302.53831961 120.9958787 302.53118706 C118.58878116 302.53689268 116.18168632 302.54385768 113.77459574 302.55198479 C107.92668529 302.56805067 102.07889834 302.570021 96.23097052 302.56477188 C91.47488022 302.56072137 86.71882159 302.56218417 81.96273279 302.56752014 C81.28438929 302.56826856 80.60604578 302.56901699 79.90714642 302.56978809 C78.52884126 302.57131965 77.15053611 302.572858 75.77223097 302.57440306 C62.86234358 302.58811397 49.95251688 302.58270046 37.0426309 302.57121784 C25.24916312 302.56128817 13.4558523 302.57422398 1.66240872 302.59815203 C-10.46636872 302.62257379 -22.59507316 302.63214329 -34.72387469 302.62549931 C-41.52555683 302.62201375 -48.32711833 302.62419507 -55.1287818 302.64175034 C-61.52616581 302.65723829 -67.92325064 302.65324292 -74.32062292 302.63444519 C-76.66389297 302.63076443 -79.00718527 302.63385271 -81.35043478 302.64433098 C-84.55848985 302.65757736 -87.7655597 302.64596023 -90.97357321 302.62833977 C-91.89256616 302.63794477 -92.8115591 302.64754978 -93.75840032 302.65744585 C-104.26637057 302.53935101 -112.78841019 299.03127953 -120.34054708 291.76775932 C-127.92691193 282.80205541 -129.72436181 273.72822157 -129.72209311 262.41262627 C-129.72576979 261.42789569 -129.72944648 260.44316512 -129.73323458 259.42859423 C-129.74425677 256.12546559 -129.74811279 252.82236843 -129.75192404 249.51922417 C-129.75818978 247.15212721 -129.76483668 244.78503123 -129.77183676 242.41793633 C-129.79105031 235.3127542 -129.80166272 228.20757152 -129.81056455 221.10237068 C-129.81495286 217.75258825 -129.82031823 214.40280739 -129.82555342 211.0530262 C-129.84256179 199.91127602 -129.85705488 188.76952681 -129.86430216 177.62776566 C-129.8662119 174.73872056 -129.86813226 171.84967548 -129.8700881 168.96063042 C-129.87057184 168.24261456 -129.87105558 167.52459871 -129.87155398 166.7848248 C-129.87985037 155.15924348 -129.90518239 143.53376517 -129.93766878 131.9082288 C-129.97078241 119.96039422 -129.98875478 108.01261193 -129.9919464 96.06473124 C-129.99410746 89.36133312 -130.00324302 82.65810819 -130.02840757 75.95475197 C-130.05170805 69.64608903 -130.05591333 63.33769607 -130.04564619 57.02900124 C-130.04515121 54.71797601 -130.05146036 52.40693741 -130.06520224 50.09595299 C-130.14483826 35.90560787 -130.08852463 24.38540287 -121.13742208 12.68572807 C-119.57492208 11.12713432 -119.57492208 11.12713432 -117.44992208 10.09979057 C-115.21840504 9.21841976 -115.21840504 9.21841976 -114.57492208 6.12713432 C-112.39523458 4.99432182 -112.39523458 4.99432182 -109.69992208 4.00213432 C-108.37347677 3.50326714 -108.37347677 3.50326714 -107.02023458 2.99432182 C-100.40104825 0.64694264 -94.04521658 0.75069462 -87.06710958 0.57244682 C-86.28269365 0.55151089 -85.49827772 0.53057495 -84.69009161 0.50900459 C-56.47009032 -0.2182683 -28.22742895 -0.02766697 0 0 Z " fill="#253D62" transform="translate(129.57492208480835,0.8728656768798828)"/>
<path d="M0 0 C66.66 0 133.32 0 202 0 C202 7.26 202 14.52 202 22 C184.18 22 166.36 22 148 22 C148 23.65 148 25.3 148 27 C148.66 27 149.32 27 150 27 C153.91003437 40.59202424 155.35541871 53.93972375 149 67 C148.51466797 68.03253906 148.51466797 68.03253906 148.01953125 69.0859375 C145.95782564 73.07470672 143.53463494 75.32747114 140 78 C139.08124367 79.06396207 138.18564402 80.14829769 137.3125 81.25 C136.1678125 82.61125 136.1678125 82.61125 135 84 C134.34 84 133.68 84 133 84 C133 84.66 133 85.32 133 86 C132.34 86 131.68 86 131 86 C130.62875 86.86625 130.62875 86.86625 130.25 87.75 C128.81700012 90.32939979 127.21575324 92.06121592 125 94 C124.34 94 123.68 94 123 94 C122.505 95.485 122.505 95.485 122 97 C121.01 97.495 121.01 97.495 120 98 C119.34786708 100.02463255 119.34786708 100.02463255 119 102 C119.57878906 102.26167969 120.15757812 102.52335937 120.75390625 102.79296875 C123.93902459 104.50462365 126.38063247 106.80522364 129.04296875 109.23046875 C131.08168331 111.11960115 131.08168331 111.11960115 133.75 113.125 C139.62025146 120.62587686 140.93829147 130.73081764 140 140 C138.55436184 150.36628337 134.90097149 160.69061422 127.75 168.4375 C125.39947881 171.8793346 125.49662057 173.90105323 126 178 C127.41623241 181.25058324 127.41623241 181.25058324 129 184 C129 184.66 129 185.32 129 186 C129.5775 186.20625 130.155 186.4125 130.75 186.625 C133.18367917 188.11224838 134.24819956 189.62904374 135.734375 192.0234375 C137.39133782 194.61116339 139.19198513 197.07815364 141 199.5625 C141.99 200.92568359 141.99 200.92568359 143 202.31640625 C144.36136269 204.14307846 145.78013789 205.9280249 147.24609375 207.671875 C149 210 149 210 149.0625 212.6875 C148 215 148 215 145.75 216.125 C144.38875 216.558125 144.38875 216.558125 143 217 C142.21625 217.474375 141.4325 217.94875 140.625 218.4375 C132.88825251 223.04270684 132.88825251 223.04270684 128.58203125 222.9453125 C124.96970707 221.62279744 123.33915231 219.15542969 121.1875 216.125 C120.75663086 215.54145752 120.32576172 214.95791504 119.88183594 214.35668945 C118.57462055 212.58037187 117.28634682 210.7914647 116 209 C115.26910156 208.00097656 114.53820312 207.00195312 113.78515625 205.97265625 C112.46075165 204.16017932 111.14145849 202.34395262 109.828125 200.5234375 C107.26275506 196.98234994 104.63790949 193.48723641 102 190 C97.8017631 190.46647077 93.95398018 191.26821583 89.90161133 192.46948242 C84.39661263 193.98799056 79.07067765 194.74135842 73.38671875 195.17578125 C71.91328255 195.29546013 71.91328255 195.29546013 70.41007996 195.41755676 C59.93692871 196.19457651 49.47398069 196.26876579 38.97680664 196.20581055 C35.74813207 196.18712753 32.51973953 196.18530471 29.29101562 196.18554688 C27.22135168 196.18064442 25.15168966 196.17482175 23.08203125 196.16796875 C22.12488724 196.16685593 21.16774323 196.1657431 20.18159485 196.16459656 C19.29513779 196.15821671 18.40868073 196.15183685 17.49536133 196.14526367 C16.72090164 196.14145187 15.94644196 196.13764008 15.14851379 196.13371277 C12.98634227 195.99915001 11.07905975 195.59373498 9 195 C9.87787466 183.26420194 11.84574174 172.23804748 14.98828125 160.89453125 C16.37566844 155.7333463 17.32856103 150.49669555 18.2890625 145.2421875 C19 142 19 142 19.98291016 139.61767578 C20.99770317 137.00591133 21.5302553 134.63472971 21.984375 131.875 C22.95543165 126.22246789 24.07458485 120.61327518 25.25 115 C25.46398437 113.97527588 25.67796875 112.95055176 25.8984375 111.89477539 C28.02309931 101.78355256 30.27048023 91.70043903 32.5234375 81.6171875 C34.72700294 71.75429291 36.88989978 61.88331088 39 52 C39.29052246 50.65156006 39.29052246 50.65156006 39.58691406 49.27587891 C40.1507543 46.64414744 40.70222678 44.01011735 41.25 41.375 C41.41322754 40.61840088 41.57645508 39.86180176 41.74462891 39.08227539 C43.12915175 32.29899812 43.45560556 26.07712766 44 19 C29.48 19 14.96 19 0 19 C0 12.73 0 6.46 0 0 Z " fill="#B8B9BA" transform="translate(53,45)"/>
<path d="M0 0 C23.10839695 -1.18240289 23.10839695 -1.18240289 30.22265625 4.28515625 C31.10244141 5.13400391 31.10244141 5.13400391 32 6 C32.53496094 6.51433594 33.06992188 7.02867188 33.62109375 7.55859375 C38.91955229 13.33736582 39.34136485 18.91632362 39.3125 26.375 C39.32861328 27.2 39.34472656 28.025 39.36132812 28.875 C39.36771027 36.91650466 36.88709804 42.53178201 32 49 C29.39840151 51.46818318 27.85363396 52.84118438 24.3125 53.5 C23.549375 53.665 22.78625 53.83 22 54 C21.731875 54.61875 21.46375 55.2375 21.1875 55.875 C19.574808 58.7608699 17.48773346 59.32263847 14.4621582 60.39355469 C9.8477281 61.53011833 5.22242308 61.30834941 0.5 61.1875 C-0.51320312 61.17396484 -1.52640625 61.16042969 -2.5703125 61.14648438 C-5.04744404 61.11143063 -7.52342927 61.06229764 -10 61 C-10.20697581 54.61660321 -9.82152944 48.9327467 -8.25 42.75 C-6.5755696 35.71995447 -5.14448924 28.67697988 -3.875 21.5625 C-3.71676758 20.67594727 -3.55853516 19.78939453 -3.39550781 18.87597656 C-3.0878554 17.14422241 -2.78119545 15.41229162 -2.47558594 13.68017578 C-1.66592358 9.11730447 -0.83244563 4.55876104 0 0 Z " fill="#273E62" transform="translate(130,70)"/>
<path d="M0 0 C1.32 0 2.64 0 4 0 C6.79059171 5.34713378 9.03650288 10.59636203 10.9375 16.3125 C12.96118422 22.25174182 15.25816915 27.8928109 17.9765625 33.5546875 C19.03242109 36.07746413 19.61219806 38.44329804 20.125 41.125 C20.41375 42.40375 20.7025 43.6825 21 45 C21.99 45.33 22.98 45.66 24 46 C26.41256386 50.55706506 27.38284419 53.76779612 27 59 C15.70374139 63.714752 2.34605026 67.37767084 -10 66 C-10.66 65.67 -11.32 65.34 -12 65 C-11.40443017 59.92930731 -10.66418841 54.95189467 -9.6875 49.9375 C-8.57407018 44.16101776 -7.54472577 38.37497767 -6.56274414 32.57470703 C-4.70667027 21.6303027 -2.53637876 10.80659246 0 0 Z " fill="#2A4062" transform="translate(114,156)"/>
<path d="M0 0 C66.66 0 133.32 0 202 0 C202 7.26 202 14.52 202 22 C184.18 22 166.36 22 148 22 C148 23.65 148 25.3 148 27 C148.66 27 149.32 27 150 27 C150.33 28.65 150.66 30.3 151 32 C150.34 31.67 149.68 31.34 149 31 C149 30.34 149 29.68 149 29 C148.01 28.67 147.02 28.34 146 28 C145.95745644 26.00045254 145.95919217 23.99958364 146 22 C147 21 147 21 149.17030334 20.87974548 C150.12738693 20.88196609 151.08447052 20.88418671 152.07055664 20.88647461 C153.15160172 20.88655014 154.23264679 20.88662567 155.34645081 20.88670349 C157.110485 20.89444542 157.110485 20.89444542 158.91015625 20.90234375 C160.10732773 20.9037587 161.30449921 20.90517365 162.53794861 20.90663147 C166.37949066 20.91225021 170.22097543 20.92480589 174.0625 20.9375 C176.65950437 20.94251259 179.25650965 20.94707591 181.85351562 20.95117188 C188.23569932 20.96222573 194.61783993 20.97950292 201 21 C201 14.4 201 7.8 201 1 C134.67 1 68.34 1 0 1 C0 0.67 0 0.34 0 0 Z " fill="#747F91" transform="translate(53,45)"/>
<path d="M0 0 C3.78488447 3.78488447 3.11923488 8.90674288 3.1384055 13.97283876 C3.1368569 14.89900015 3.1353083 15.82516154 3.13371277 16.77938843 C3.13597833 17.77102481 3.13824388 18.7626612 3.14057809 19.78434718 C3.14691352 23.11063779 3.14608902 26.43688761 3.14526367 29.76318359 C3.14825543 32.14662224 3.151658 34.5300604 3.15544128 36.91349792 C3.16336477 42.71780192 3.16649585 48.52209352 3.16705366 54.32640265 C3.16752909 59.04495131 3.16958515 63.76349662 3.17275429 68.48204422 C3.18155902 81.86406494 3.18617392 95.24607764 3.18542381 108.62810127 C3.18538386 109.34927512 3.1853439 110.07044896 3.18530273 110.81347656 C3.18526185 111.53553227 3.18522097 112.25758798 3.18517885 113.00152417 C3.18477238 124.70413731 3.19434275 136.40671828 3.2084411 148.10932212 C3.22280759 160.12945841 3.22971114 172.14957901 3.22884732 184.16972411 C3.22851546 190.91653212 3.23125792 197.66330639 3.24202538 204.41010666 C3.25169653 210.75481483 3.25179224 217.0994517 3.24450874 223.44416237 C3.24346171 225.77298524 3.24583282 228.10181254 3.2518692 230.43062782 C3.25957511 233.60938414 3.25495344 236.78789337 3.24723816 239.96664429 C3.25238172 240.88834423 3.25752529 241.81004418 3.26282471 242.75967443 C3.23527711 247.8951669 2.6674059 252.13450057 1 257 C-0.125 255.25 -0.125 255.25 -1 253 C-0.33354308 251.66656181 0.3331506 250.33324195 1 249 C1.28799859 246.83168968 1.28799859 246.83168968 1.23046875 244.55078125 C1.22853516 243.70193359 1.22660156 242.85308594 1.22460938 241.97851562 C1.21236328 241.09873047 1.20011719 240.21894531 1.1875 239.3125 C1.1865332 238.02182617 1.1865332 238.02182617 1.18554688 236.70507812 C1.15781957 232.61684061 0.99285942 228.65537486 0.42578125 224.60546875 C0.01493007 221.26539997 0.1003696 218.27198315 0.46530151 214.93009949 C1.2527104 206.13240051 1.13977254 197.33804705 1.12939453 188.51293945 C1.13075179 186.56520556 1.13253354 184.61747193 1.13470459 182.66973877 C1.13923942 177.41174185 1.13750593 172.15376469 1.1343255 166.89576745 C1.1317825 161.37868718 1.13414473 155.86160854 1.13571167 150.3445282 C1.13752725 141.08539529 1.13514262 131.82627037 1.13037109 122.56713867 C1.12492483 111.87546407 1.12669624 101.18380853 1.1321975 90.49213439 C1.13674029 81.29352478 1.13737361 72.09492088 1.13475883 62.89631051 C1.1332031 57.4104625 1.13298308 51.92462344 1.13629532 46.43877602 C1.13919113 41.2832869 1.13716693 36.1278223 1.13140106 30.97233582 C1.13008284 29.0845767 1.13045159 27.19681551 1.13266373 25.30905724 C1.1354121 22.7247942 1.13194936 20.14060885 1.12698364 17.55635071 C1.12921436 16.81645301 1.13144509 16.07655531 1.13374341 15.31423646 C1.11459217 10.14617118 0.63653459 5.12942887 0 0 Z " fill="#46477B" transform="translate(299,24)"/>
<path d="M0 0 C3.84407277 0.54915325 5.47683622 2.11708826 8 5 C10.90059229 10.8459468 12.57923032 16.48365889 12 23 C9 22 9 22 7.75390625 20.06640625 C0 3.7704918 0 3.7704918 0 0 Z " fill="#30455D" transform="translate(149,161)"/>
<path d="M0 0 C0.33 0 0.66 0 1 0 C1 6.93 1 13.86 1 21 C-16.82 21 -34.64 21 -53 21 C-53 22.65 -53 24.3 -53 26 C-52.34 26 -51.68 26 -51 26 C-50.67 27.65 -50.34 29.3 -50 31 C-50.66 30.67 -51.32 30.34 -52 30 C-52 29.34 -52 28.68 -52 28 C-52.99 27.67 -53.98 27.34 -55 27 C-55.04254356 25.00045254 -55.04080783 22.99958364 -55 21 C-54 20 -54 20 -51.82969666 19.87974548 C-50.87261307 19.88196609 -49.91552948 19.88418671 -48.92944336 19.88647461 C-47.84839828 19.88655014 -46.76735321 19.88662567 -45.65354919 19.88670349 C-43.889515 19.89444542 -43.889515 19.89444542 -42.08984375 19.90234375 C-40.89267227 19.9037587 -39.69550079 19.90517365 -38.46205139 19.90663147 C-34.62050934 19.91225021 -30.77902457 19.92480589 -26.9375 19.9375 C-24.34049563 19.94251259 -21.74349035 19.94707591 -19.14648438 19.95117188 C-12.76430068 19.96222573 -6.38216007 19.97950292 0 20 C0 13.4 0 6.8 0 0 Z " fill="#85909C" transform="translate(254,46)"/>
<path d="M0 0 C0.33 0 0.66 0 1 0 C1.74753316 5.34756514 2.15913152 10.56894871 2.16796875 15.97265625 C2.17129715 16.69940048 2.17462555 17.42614471 2.17805481 18.1749115 C2.18307779 19.69838841 2.18546458 21.22187614 2.18530273 22.74536133 C2.18749786 25.06024337 2.20572607 27.3746545 2.22460938 29.68945312 C2.22754269 31.17968589 2.2295279 32.66992089 2.23046875 34.16015625 C2.23765427 34.84263931 2.24483978 35.52512238 2.25224304 36.22828674 C2.23039158 40.87578145 1.43103362 44.62962262 0 49 C-1.125 47.25 -1.125 47.25 -2 45 C-1.33354308 43.66656181 -0.6668494 42.33324195 0 41 C0.28799859 38.83168968 0.28799859 38.83168968 0.23046875 36.55078125 C0.22853516 35.70193359 0.22660156 34.85308594 0.22460938 33.97851562 C0.21236328 33.09873047 0.20011719 32.21894531 0.1875 31.3125 C0.1865332 30.02182617 0.1865332 30.02182617 0.18554688 28.70507812 C0.15713186 24.51544242 -0.0217721 20.42456964 -0.5390625 16.265625 C-0.99331692 12.57159381 -0.94680835 9.15248076 -0.5625 5.4375 C-0.46066406 4.40496094 -0.35882813 3.37242187 -0.25390625 2.30859375 C-0.12822266 1.16583984 -0.12822266 1.16583984 0 0 Z " fill="#2C366A" transform="translate(300,232)"/>
<path d="M0 0 C0.66 0 1.32 0 2 0 C0.60485497 4.43909781 -1.47695811 6.98024981 -5 10 C-7.3125 10.8125 -7.3125 10.8125 -9 11 C-8.67 11.99 -8.34 12.98 -8 14 C-8.27769908 16.3406065 -8.60539977 18.67624308 -9 21 C-10.65 20.01 -12.3 19.02 -14 18 C-13.62403791 15.21788056 -13.32681541 13.4120716 -11.5625 11.1875 C-10 10 -10 10 -8 10 C-7.67 9.01 -7.34 8.02 -7 7 C-4.5625 4.3125 -4.5625 4.3125 -2 2 C-1.34 2 -0.68 2 0 2 C0 1.34 0 0.68 0 0 Z " fill="#405068" transform="translate(186,129)"/>
<path d="M0 0 C0.66 0.33 1.32 0.66 2 1 C1.67 1.66 1.34 2.32 1 3 C0.01 3 -0.98 3 -2 3 C-2.33 4.65 -2.66 6.3 -3 8 C-12.35178463 11.11726154 -25.14100997 9 -35 9 C-35 8.67 -35 8.34 -35 8 C-34.38068604 7.9906543 -33.76137207 7.98130859 -33.12329102 7.97167969 C-30.26893965 7.91740737 -27.41612892 7.83387663 -24.5625 7.75 C-23.58861328 7.73582031 -22.61472656 7.72164062 -21.61132812 7.70703125 C-15.10389025 7.48939119 -9.59040936 6.51589799 -4 3 C-3.67 2.34 -3.34 1.68 -3 1 C-2.01 0.67 -1.02 0.34 0 0 Z " fill="#8A92A0" transform="translate(155,123)"/>
<path d="M0 0 C0.98204842 3.28128878 1.13412615 6.26975521 1.125 9.6875 C1.12757813 10.66074219 1.13015625 11.63398437 1.1328125 12.63671875 C1 15 1 15 0 16 C-0.24350096 18.80927959 -0.38391001 21.61734162 -0.5234375 24.43359375 C-0.68070312 25.28050781 -0.83796875 26.12742187 -1 27 C-1.99 27.66 -2.98 28.32 -4 29 C-3.50940538 19.12043934 -1.97298648 9.66639286 0 0 Z " fill="#31425C" transform="translate(127,87)"/>
<path d="M0 0 C0.33 0 0.66 0 1 0 C0.98839844 0.81984375 0.97679688 1.6396875 0.96484375 2.484375 C0.95582031 3.56203125 0.94679688 4.6396875 0.9375 5.75 C0.92589844 6.81734375 0.91429688 7.8846875 0.90234375 8.984375 C0.88050073 11.89226868 0.88050073 11.89226868 1.59375 14.1875 C2.28159635 17.25635295 0.48599578 19.38464742 -1 22 C-1.66 22 -2.32 22 -3 22 C-3.33 22.66 -3.66 23.32 -4 24 C-3.28621973 15.86290495 -1.67226118 7.98268072 0 0 Z " fill="#A1A8B0" transform="translate(71,191)"/>
<path d="M0 0 C3.34163899 1.38274717 5.25766748 2.79044009 7 6 C6.6875 8.75 6.6875 8.75 6 11 C4.35 11.33 2.7 11.66 1 12 C1.33 10.02 1.66 8.04 2 6 C1.34 6 0.68 6 0 6 C0 4.02 0 2.04 0 0 Z " fill="#A2A8B5" transform="translate(195,249)"/>
<path d="M0 0 C1.31538327 4.15771494 0.34433068 6.8879297 -1 11 C-1.66 11 -2.32 11 -3 11 C-3.88935377 14.303314 -4.46274105 17.62294375 -5 21 C-5.66 21 -6.32 21 -7 21 C-6.72876813 12.86304398 -3.91083499 7.06820635 0 0 Z " fill="#556283" transform="translate(7,15)"/>
<path d="M0 0 C2.87161091 1.43580545 3.59451476 3.13805083 5 6 C5.34057617 9.04614258 5.34057617 9.04614258 5.29296875 12.39453125 C5.28330078 13.59658203 5.27363281 14.79863281 5.26367188 16.03710938 C5.23853516 17.28298828 5.21339844 18.52886719 5.1875 19.8125 C5.17396484 21.07771484 5.16042969 22.34292969 5.14648438 23.64648438 C5.11118318 26.76475643 5.06186819 29.88216042 5 33 C4.34 33 3.68 33 3 33 C3.02094727 32.35039307 3.04189453 31.70078613 3.06347656 31.03149414 C3.14745583 28.04199167 3.198916 25.05273842 3.25 22.0625 C3.28351563 21.04091797 3.31703125 20.01933594 3.3515625 18.96679688 C3.4398796 12.05598398 2.38983396 7.04494912 -1 1 C-0.67 0.67 -0.34 0.34 0 0 Z " fill="#9EA8B4" transform="translate(165,77)"/>
<path d="M0 0 C3.03926059 1.45355941 5.86253132 3.1024377 8.6875 4.9375 C9.47511719 5.44152344 10.26273438 5.94554687 11.07421875 6.46484375 C13 8 13 8 14 11 C9.49656089 10.4887988 7.12474574 8.82478642 3.6875 5.9375 C2.80449219 5.20402344 1.92148438 4.47054688 1.01171875 3.71484375 C0.34785156 3.14894531 -0.31601563 2.58304687 -1 2 C-0.67 1.34 -0.34 0.68 0 0 Z " fill="#54647D" transform="translate(10,290)"/>
<path d="M0 0 C2 1 2 1 3.125 4.125 C3.97755199 7.90058738 4.15729024 11.14638912 4 15 C1 14 1 14 -0.75 11.0625 C-1.36875 9.5465625 -1.36875 9.5465625 -2 8 C-1.67 7.34 -1.34 6.68 -1 6 C-0.41205236 3.90951951 0 2.17634453 0 0 Z " fill="#46546A" transform="translate(157,169)"/>
<path d="M0 0 C0.33 0 0.66 0 1 0 C0.61336547 9.01258426 -0.47553488 17.33108203 -3 26 C-3.33 26 -3.66 26 -4 26 C-4 22.37 -4 18.74 -4 15 C-3.34 15 -2.68 15 -2 15 C-1.93941406 14.16855469 -1.87882812 13.33710938 -1.81640625 12.48046875 C-1.73261719 11.39378906 -1.64882812 10.30710938 -1.5625 9.1875 C-1.48128906 8.10855469 -1.40007812 7.02960938 -1.31640625 5.91796875 C-1 3 -1 3 0 0 Z " fill="#8F99A8" transform="translate(106,190)"/>
<path d="M0 0 C2 1 2 1 3.0703125 3.5546875 C5.407652 10.91297852 6.55660482 17.28483876 6 25 C5.67 25 5.34 25 5 25 C5 21.7 5 18.4 5 15 C4.34 15 3.68 15 3 15 C2.49733206 12.87562952 1.9979439 10.75048274 1.5 8.625 C1.2215625 7.44164062 0.943125 6.25828125 0.65625 5.0390625 C0 2 0 2 0 0 Z " fill="#949CAD" transform="translate(187,160)"/>
<path d="M0 0 C0 0.66 0 1.32 0 2 C1.32 2.33 2.64 2.66 4 3 C1.1875 5.0625 1.1875 5.0625 -2 7 C-2.99 6.67 -3.98 6.34 -5 6 C-6.33106622 5.65772583 -7.66400079 5.32248257 -9 5 C-8.34 5 -7.68 5 -7 5 C-6.67 4.01 -6.34 3.02 -6 2 C-3.85412616 0.684787 -2.52986895 0 0 0 Z " fill="#384F73" transform="translate(21,5)"/>
<path d="M0 0 C0.36867187 0.48339844 0.73734375 0.96679688 1.1171875 1.46484375 C3.74669979 3.60882368 5.77303105 3.43730598 9.125 3.5625 C12.3828125 3.69140625 12.3828125 3.69140625 15 4 C15.33 4.66 15.66 5.32 16 6 C14.083412 6.02712153 12.1667127 6.04645097 10.25 6.0625 C8.64898437 6.07990234 8.64898437 6.07990234 7.015625 6.09765625 C4.46631499 6.01510087 2.42066409 5.74617558 0 5 C0 3.35 0 1.7 0 0 Z " fill="#A8AFBC" transform="translate(62,235)"/>
<path d="M0 0 C0.33 0 0.66 0 1 0 C1.07728446 4.55978293 0.96509577 8.53643206 0 13 C0.061875 13.825 0.12375 14.65 0.1875 15.5 C-0.07160788 18.95477172 -1.71304468 20.49864262 -4 23 C-3.29885571 17.81970092 -2.41920353 12.69648064 -1.4375 7.5625 C-1.29892578 6.83095703 -1.16035156 6.09941406 -1.01757812 5.34570312 C-0.6797819 3.56353682 -0.34009012 1.78172998 0 0 Z " fill="#8B94A4" transform="translate(82,141)"/>
<path d="M0 0 C3.27742098 3.10026309 5.93104837 5.97098894 8 10 C8 10.66 8 11.32 8 12 C7.01 12 6.02 12 5 12 C4.9175 11.21625 4.835 10.4325 4.75 9.625 C4.29150599 6.8553382 4.29150599 6.8553382 2 5.875 C1.34 5.58625 0.68 5.2975 0 5 C-0.33 4.01 -0.66 3.02 -1 2 C-0.67 1.34 -0.34 0.68 0 0 Z " fill="#475575" transform="translate(291,12)"/>
<path d="M0 0 C0.33 0 0.66 0 1 0 C1.0543251 3.02107902 1.09382927 6.04116528 1.125 9.0625 C1.14175781 9.91005859 1.15851563 10.75761719 1.17578125 11.63085938 C1.21596135 16.83418201 0.69745815 21.07469821 -1 26 C-2.125 24.25 -2.125 24.25 -3 22 C-2.34229011 20.66222576 -1.67445738 19.32940944 -1 18 C-0.64088781 15.88185683 -0.64088781 15.88185683 -0.5859375 13.671875 C-0.54726563 12.87265625 -0.50859375 12.0734375 -0.46875 11.25 C-0.4378125 10.425 -0.406875 9.6 -0.375 8.75 C-0.33632813 7.90953125 -0.29765625 7.0690625 -0.2578125 6.203125 C-0.16384164 4.13576618 -0.08084436 2.06791373 0 0 Z " fill="#717680" transform="translate(301,255)"/>
<path d="M0 0 C0.99 0.33 1.98 0.66 3 1 C2.34 5.62 1.68 10.24 1 15 C2.98 15.495 2.98 15.495 5 16 C3.35 16 1.7 16 0 16 C0 10.72 0 5.44 0 0 Z " fill="#4E5E76" transform="translate(61,225)"/>
<path d="M0 0 C0.66 0.33 1.32 0.66 2 1 C1.6889315 3.06271639 1.37608484 5.12516466 1.0625 7.1875 C0.88847656 8.33605469 0.71445313 9.48460937 0.53515625 10.66796875 C0.08620687 13.46325212 -0.42082162 16.22933586 -1 19 C-1.33 19 -1.66 19 -2 19 C-2.2226746 17.56465159 -2.42761906 16.12654475 -2.625 14.6875 C-2.74101563 13.88699219 -2.85703125 13.08648437 -2.9765625 12.26171875 C-3 10 -3 10 -1 7 C-0.60612212 4.67612053 -0.26513915 2.34206251 0 0 Z " fill="#405167" transform="translate(69,192)"/>
<path d="M0 0 C3.79588866 0.54226981 5.47211993 2.20127563 8 5 C7.67 5.66 7.34 6.32 7 7 C4.9375 7.625 4.9375 7.625 3 8 C0 2.25 0 2.25 0 0 Z " fill="#3F4F65" transform="translate(149,161)"/>
<path d="M0 0 C0.33 0 0.66 0 1 0 C1.07407957 4.1484561 1.04918376 8.13498932 0.5 12.25 C-0.08810915 16.03028752 -0.08810915 16.03028752 0 20 C-0.99 20 -1.98 20 -3 20 C-2.45136137 13.2142064 -1.45732062 6.64990964 0 0 Z " fill="#8D97A4" transform="translate(95,81)"/>
<path d="M0 0 C0.33 0 0.66 0 1 0 C1.48828125 1.98567708 1.9765625 3.97135417 2.46484375 5.95703125 C2.91010705 7.65683202 3.44433985 9.33301954 4 11 C3.01 12.485 3.01 12.485 2 14 C-0.66464729 8.77729131 -1.32854177 5.9180497 0 0 Z " fill="#52607E" transform="translate(2,271)"/>
<path d="M0 0 C0.99 0.33 1.98 0.66 3 1 C2.02471263 2.33617352 1.04466681 3.6688751 0.0625 5 C-0.48277344 5.7425 -1.02804688 6.485 -1.58984375 7.25 C-2.28787109 8.11625 -2.28787109 8.11625 -3 9 C-3.33 9 -3.66 9 -4 9 C-4.25 6.75 -4.25 6.75 -4 4 C-2 1.6875 -2 1.6875 0 0 Z " fill="#AAB2B9" transform="translate(183,206)"/>
<path d="M0 0 C0.99 0 1.98 0 3 0 C1.82744291 3.33727786 0.81131596 5.77437487 -2 8 C-2.66 8 -3.32 8 -4 8 C-3.49396008 5.83125748 -3.00016187 4.00032373 -2 2 C-1.34 1.67 -0.68 1.34 0 1 C0 0.67 0 0.34 0 0 Z " fill="#5D6B86" transform="translate(293,286)"/>
<path d="M0 0 C0 3 0 3 -2.375 5.625 C-5 8 -5 8 -7 9 C-6.45276317 5.62537285 -5.9451 3.91765 -4 1 C-1.875 0.3125 -1.875 0.3125 0 0 Z " fill="#A0A6B2" transform="translate(197,117)"/>
<path d="M0 0 C1.44010481 0.25662245 2.8770687 0.53090821 4.3125 0.8125 C5.11300781 0.96332031 5.91351563 1.11414063 6.73828125 1.26953125 C9.23445587 2.07572236 10.32422106 3.02052002 12 5 C7.04230204 5.29162929 3.97193147 5.12940055 0 2 C0 1.34 0 0.68 0 0 Z " fill="#3E4A60" transform="translate(23,298)"/>
<path d="M0 0 C0.33 0 0.66 0 1 0 C1 2.97 1 5.94 1 9 C-0.65 9.33 -2.3 9.66 -4 10 C-4.33 7.69 -4.66 5.38 -5 3 C-2.525 4.98 -2.525 4.98 0 7 C0 4.69 0 2.38 0 0 Z " fill="#9DA3AD" transform="translate(161,177)"/>
<path d="M0 0 C0.66 0 1.32 0 2 0 C1.32942834 2.93375101 0.5040235 4.61941083 -1.9140625 6.4453125 C-3.91732182 7.6840771 -5.93333449 8.87054327 -8 10 C-6.75794193 6.27382578 -4.8889325 4.60708543 -2 2 C-1.34 2 -0.68 2 0 2 C0 1.34 0 0.68 0 0 Z " fill="#4D5B70" transform="translate(186,129)"/>
<path d="M0 0 C0.33 0 0.66 0 1 0 C2.10643764 5.83394389 2.27137992 8.76579213 -1 14 C-2.13732426 10.59598052 -1.83989957 8.22543336 -1.0625 4.75 C-0.86785156 3.85796875 -0.67320313 2.9659375 -0.47265625 2.046875 C-0.31667969 1.37140625 -0.16070312 0.6959375 0 0 Z " fill="#47556C" transform="translate(113,159)"/>
<path d="M0 0 C0.66 0 1.32 0 2 0 C1.8125 1.8125 1.8125 1.8125 1 4 C-1.375 5.8125 -1.375 5.8125 -4 7 C-4.99 6.67 -5.98 6.34 -7 6 C-6.34 6 -5.68 6 -5 6 C-5 5.34 -5 4.68 -5 4 C-4.01 4 -3.02 4 -2 4 C-2 3.34 -2 2.68 -2 2 C-1.34 2 -0.68 2 0 2 C0 1.34 0 0.68 0 0 Z " fill="#65788F" transform="translate(285,294)"/>
<path d="M0 0 C0.66 1.32 1.32 2.64 2 4 C-0.90600261 5.25664978 -2.79604584 6 -6 6 C-2.25 1.125 -2.25 1.125 0 0 Z " fill="#415371" transform="translate(196,120)"/>
<path d="M0 0 C2.31 0 4.62 0 7 0 C4.94766315 2.2477975 3.99332739 3.0022242 1 4 C0.34 3.67 -0.32 3.34 -1 3 C-0.67 2.01 -0.34 1.02 0 0 Z " fill="#3C4D66" transform="translate(130,239)"/>
<path d="M0 0 C0 0.99 0 1.98 0 3 C-6.75 5.125 -6.75 5.125 -9 4 C-6.03 2.68 -3.06 1.36 0 0 Z " fill="#42526B" transform="translate(193,263)"/>
<path d="M0 0 C1.07841911 4.31367645 2.06400794 8.87198412 0 13 C-0.66 13 -1.32 13 -2 13 C-1.34 8.71 -0.68 4.42 0 0 Z " fill="#4F5E76" transform="translate(127,87)"/>
<path d="M0 0 C5.41538462 -0.36923077 5.41538462 -0.36923077 8.375 1.5 C8.91125 1.995 9.4475 2.49 10 3 C8.35 2.67 6.7 2.34 5 2 C4.67 2.66 4.34 3.32 4 4 C2.68 2.68 1.36 1.36 0 0 Z " fill="#35465E" transform="translate(148,71)"/>
<path d="M0 0 C2 3 2 3 2 5 C2.66 5 3.32 5 4 5 C4.33 6.65 4.66 8.3 5 10 C4.34 9.67 3.68 9.34 3 9 C3 8.34 3 7.68 3 7 C2.01 6.67 1.02 6.34 0 6 C0 4.02 0 2.04 0 0 Z " fill="#95A0AF" transform="translate(199,67)"/>
<path d="M0 0 C0.66 0 1.32 0 2 0 C2 0.66 2 1.32 2 2 C3.32 2.33 4.64 2.66 6 3 C6 4.65 6 6.3 6 8 C1.125 3.375 1.125 3.375 0 0 Z " fill="#364962" transform="translate(186,234)"/>
<path d="M0 0 C0.33 1.32 0.66 2.64 1 4 C0.01 4 -0.98 4 -2 4 C-2.33 4.99 -2.66 5.98 -3 7 C-3.99 6.34 -4.98 5.68 -6 5 C-4.02 3.35 -2.04 1.7 0 0 Z " fill="#8F98A7" transform="translate(163,117)"/>
</svg>
